<svg width="90" height="24" viewBox="0 0 90 24" fill="none" xmlns="http://www.w3.org/2000/svg">
<path d="M0 22.9044H13.9728V19.0993H4.61498V1.07647H0V22.9044ZM16.9437 22.9044H21.4842V6.53345H16.9437V22.9044ZM19.2246 4.59367C20.5463 4.59367 21.6866 3.59179 21.6866 2.2915C21.6866 1.00187 20.5463 0 19.2246 0C17.9136 0 16.7733 1.00187 16.7733 2.2915C16.7733 3.59179 17.9136 4.59367 19.2246 4.59367ZM29.6617 13.4399C29.6722 11.3296 30.9299 10.0933 32.7631 10.0933C34.5857 10.0933 35.6835 11.287 35.6729 13.2907V22.9044H40.2132V12.4807C40.2132 8.66508 37.9751 6.32029 34.5644 6.32029C32.1343 6.32029 30.3757 7.514 29.6404 9.4218H29.4484V6.53345H25.1212V22.9044H29.6617V13.4399ZM51.295 23.2242C55.3558 23.2242 58.0737 21.2523 58.7131 18.2148L54.5244 17.9377C54.066 19.1847 52.883 19.8348 51.3802 19.8348C49.11 19.8348 47.6712 18.332 47.6712 15.8913V15.8806H58.8197V14.6336C58.8197 9.07007 55.4517 6.32029 51.1244 6.32029C46.3069 6.32029 43.1842 9.74154 43.1842 14.7935C43.1842 19.9841 46.2644 23.2242 51.295 23.2242ZM47.6712 13.0669C47.7566 11.2017 49.1847 9.70958 51.1991 9.70958C53.1601 9.70958 54.5244 11.1165 54.5457 13.0669H47.6712ZM66.5149 23.2135C68.9341 23.2135 70.501 22.1584 71.3004 20.6342H71.4282V22.9044H75.7342V11.8625C75.7342 7.96163 72.3982 6.32029 68.8596 6.32029C64.8308 6.32029 62.2835 8.19612 61.6547 11.1804L65.8539 11.5215C66.1631 10.4343 67.133 9.63496 68.7637 9.63496C70.3304 9.63496 71.1831 10.4024 71.1938 11.7772C71.2045 12.8537 70.0747 13.0136 67.2289 13.2907C63.9888 13.5891 61.0792 14.6763 61.0792 18.332C61.0792 21.5721 63.392 23.2135 66.5149 23.2135ZM67.8152 20.0799C66.4189 20.0799 65.4171 19.4298 65.4171 18.1828C65.4171 16.9039 66.4722 16.2749 68.0709 16.0512C69.062 15.9126 70.6821 15.6781 71.2257 15.3158V17.0531C71.2257 18.769 69.8082 20.0799 67.8152 20.0799ZM79.2566 22.9044H83.7971V13.6424C83.8076 11.6387 85.2572 10.2638 87.0904 10.2638C87.7085 10.2638 88.2095 10.4343 88.6357 10.6475L90 6.89582C89.4032 6.53345 88.6357 6.29896 87.7618 6.29896C85.918 6.29896 84.4259 7.36478 83.8289 9.38983H83.6585V6.53345H79.2566V22.9044Z" fill="white"/>
</svg>
